<svg xmlns="http://www.w3.org/2000/svg" width="64" height="64" viewBox="0 0 64 64">
    <path fill="#000" fill-rule="evenodd" d="M10.765 12.496l1.499 1.502-6.132 6.145 4.77 4.78 6.131-6.214 1.43 1.434-6.2 6.146L17.034 31 31 17.002 13.967 0 0 13.998l4.633 4.643 6.132-6.145zM46.998 33L33 46.967l4.711 4.77 6.146-6.2 1.434 1.43-6.214 6.132 4.848 4.77 6.077-6.133 1.502 1.5-6.145 6.131L50.002 64 64 50.033 46.998 33zm13.757-16.811c.83-.825 1.245-1.844 1.245-3.058 0-1.215-.393-2.257-1.18-3.128l-7.403-7.697C52.631 1.436 51.66 1 50.502 1c-1.158 0-2.151.435-2.981 1.306L43 7.116 56.234 21l4.521-4.811zM5 53.356L10.644 59 22 54.968 9.032 42 5 53.356zM42.22 8L10 40.268 23.78 54 56 21.8 42.22 8zM16 39.533L41.47 14 43 15.467 17.463 41 16 39.533zm3 3.004L44.533 17 46 18.53 20.467 44 19 42.537zm3 2.933L47.537 20 49 21.463 23.53 47 22 45.47zM2 63l7-2.5L4.5 56 2 63z"/>
</svg>
