<svg xmlns="http://www.w3.org/2000/svg" width="57" height="68" viewBox="0 0 57 68">
    <path fill="#000" fill-rule="evenodd" d="M46.95 7.527H57v26.894H30.149V64.62c0 .943-.314 1.73-.942 2.359-.628.629-1.414.943-2.356.943H20.1c-.942 0-1.727-.314-2.355-.943-.628-.63-.942-1.416-.942-2.36v-36.96h33.446V14.29H46.95v3.303c0 .943-.314 1.756-.942 2.438-.628.681-1.413 1.022-2.355 1.022H3.455c-.943 0-1.754-.34-2.434-1.022C.34 19.349 0 18.536 0 17.593V4.224c0-.943.34-1.73 1.02-2.359.681-.63 1.492-.944 2.435-.944h40.198c.942 0 1.727.315 2.355.944.628.63.942 1.416.942 2.36v3.302z"/>
</svg>
